<svg width="25" height="208" viewBox="0 0 25 208" fill="none" xmlns="http://www.w3.org/2000/svg">
<path d="M11 18.1705C11 19.275 11.8954 20.1705 13 20.1705C14.1046 20.1705 15 19.275 15 18.1705H11ZM15 30.5795C15 29.475 14.1046 28.5795 13 28.5795C11.8954 28.5795 11 29.475 11 30.5795H15ZM11 40.9205C11 42.025 11.8954 42.9205 13 42.9205C14.1046 42.9205 15 42.025 15 40.9205H11ZM15 53.3295C15 52.225 14.1046 51.3295 13 51.3295C11.8954 51.3295 11 52.225 11 53.3295H15ZM11 63.6705C11 64.775 11.8954 65.6705 13 65.6705C14.1046 65.6705 15 64.775 15 63.6705H11ZM15 76.0796C15 74.975 14.1046 74.0796 13 74.0796C11.8954 74.0796 11 74.975 11 76.0796H15ZM11 86.4205C11 87.525 11.8954 88.4205 13 88.4205C14.1046 88.4205 15 87.525 15 86.4205H11ZM15 98.8295C15 97.725 14.1046 96.8295 13 96.8295C11.8954 96.8295 11 97.725 11 98.8295H15ZM11 109.17C11 110.275 11.8954 111.17 13 111.17C14.1046 111.17 15 110.275 15 109.17H11ZM15 121.58C15 120.475 14.1046 119.58 13 119.58C11.8954 119.58 11 120.475 11 121.58H15ZM11 131.92C11 133.025 11.8954 133.92 13 133.92C14.1046 133.92 15 133.025 15 131.92H11ZM15 144.33C15 143.225 14.1046 142.33 13 142.33C11.8954 142.33 11 143.225 11 144.33H15ZM11 154.67C11 155.775 11.8954 156.67 13 156.67C14.1046 156.67 15 155.775 15 154.67H11ZM15 167.08C15 165.975 14.1046 165.08 13 165.08C11.8954 165.08 11 165.975 11 167.08H15ZM11 177.42C11 178.525 11.8954 179.42 13 179.42C14.1046 179.42 15 178.525 15 177.42H11ZM15 189.83C15 188.725 14.1046 187.83 13 187.83C11.8954 187.83 11 188.725 11 189.83H15ZM11 13V18.1705H15V13H11ZM11 30.5795V40.9205H15V30.5795H11ZM11 53.3295V63.6705H15V53.3295H11ZM11 76.0796V86.4205H15V76.0796H11ZM11 98.8295V109.17H15V98.8295H11ZM11 121.58V131.92H15V121.58H11ZM11 144.33V154.67H15V144.33H11ZM11 167.08V177.42H15V167.08H11ZM11 189.83V195H15V189.83H11Z" fill="#FEC72F"/>
<circle cx="12.5" cy="12.5" r="12.5" fill="#FEC72F"/>
<circle cx="12.5003" cy="12.4998" r="6.73077" fill="white"/>
<circle cx="12.5" cy="195.5" r="12.5" fill="#FEC72F"/>
<circle cx="12.5003" cy="195.5" r="6.73077" fill="white"/>
</svg>
